inDegrees=yes
name=ik_S53_A10_T02
DataType=double
version=3
OpenSimVersion=4.3-2021-08-27-4bc7ad9
endheader
time	pelvis_tilt	pelvis_list	pelvis_rotation	pelvis_tx	pelvis_ty	pelvis_tz	hip_flexion_r	hip_adduction_r	hip_rotation_r	knee_angle_r	knee_angle_r_beta	ankle_angle_r	subtalar_angle_r	mtp_angle_r	hip_flexion_l	hip_adduction_l	hip_rotation_l	knee_angle_l	knee_angle_l_beta	ankle_angle_l	subtalar_angle_l	mtp_angle_l	lumbar_extension	lumbar_bending	lumbar_rotation	arm_flex_r	arm_add_r	arm_rot_r	elbow_flex_r	pro_sup_r	wrist_flex_r	wrist_dev_r	arm_flex_l	arm_add_l	arm_rot_l	elbow_flex_l	pro_sup_l	wrist_flex_l	wrist_dev_l
0	0	0	0	0	0.9399999999999999	0	0	0	0	0	0	0	0	0	0	0	0	0	0	0	0	0	0	0	0	0	0	0	0	89.99999999963507	0	0	0	0	0	0	89.99999999869995	0	0
0.01666666666666667	1.341181405744603	0.0305324613705103	34.76203236000184	0	0.9399999999999999	0	1.322497464521351	-0.6216462121116916	-0.443526381652976	2.053408077001265	0.03583873183071732	0	0	0	1.322497464521351	-0.6216462121116916	-0.443526381652976	2.053408077001265	0.03583873183071732	0	0	0	1.130930312751155	2.572499128960896	15.95520000110452	14.23672100061986	3.17559272276817	0.8320587099685659	10.50230460377865	106.0052122337074	0	0	9.535484569999117	2.240448582708694	-4.938670269344779	11.83070808240748	99.94075897870427	0	0
0.03333333333333333	1.352548789611681	0.00861391253766002	34.74846843456216	0	0.9399999999999999	0	1.334016161878674	-0.627703307171646	-0.4474144651539688	2.071619666836763	0.03615658403536949	0	0	0	1.334016161878674	-0.627703307171646	-0.4474144651539688	2.071619666836763	0.03615658403536949	0	0	0	1.127781866453701	2.548376290796702	15.99275384087968	14.2578999106688	3.171259871817934	0.7326353098020714	10.37425791944045	105.71725268443	0	0	9.522591805616633	2.236373941295694	-4.900353726838459	11.79552606025904	99.9985500954767	0	0
0.05	0.4442752762864763	-0.4627335840051648	38.58604117826899	0	0.9399999999999999	0	43.82249463915552	-10.35326622384642	-10.83189161042491	55.02663679787143	0.960395988421926	0	0	0	43.82249463915552	-10.35326622384642	-10.83189161042491	55.02663679787143	0.960395988421926	0	0	0	2.285108053145377	2.261313758177494	12.14493215006974	14.29881470611908	3.146478880259405	0.6760422408386684	10.34681373669855	105.777569034694	0	0	9.548367477780209	2.243858701536858	-4.91129114325124	11.77008040906557	99.9959333871298	0	0
0.06666666666666667	0.4512138737975677	-0.4689751326793727	38.57737189561573	0	0.9399999999999999	0	43.82441034262474	-10.35184261618805	-10.82933100346814	55.02660673892159	0.9603954637942815	0	0	0	43.82441034262474	-10.35184261618805	-10.82933100346814	55.02660673892159	0.9603954637942815	0	0	0	2.283692771677173	2.24928490007537	12.13263261972989	14.3049629874708	3.09919884822384	0.6592497762788152	10.30940847121705	105.7745626882458	0	0	9.519519039247426	2.247294095740176	-4.911011243657226	11.75262433611698	99.9845335737692	0	0
0.08333333333333333	0.4369219805774698	-0.4796042212839206	38.58803751452974	0	0.9399999999999999	0	43.82642623824636	-10.35031536873748	-10.82661536286162	55.02657507112405	0.9603949110869476	0	0	0	43.82642623824636	-10.35031536873748	-10.82661536286162	55.02657507112405	0.9603949110869476	0	0	0	2.262712826362423	2.247638178542281	12.1408225883638	14.37965476341844	3.074993649977636	0.5556999671593833	10.26237013970976	105.8810821509257	0	0	9.543445307778603	2.30978457212734	-5.010358026380616	11.70158562069792	100.1559593578344	0	0
0.09999999999999999	0.4460250440000756	-0.4939334972689521	38.5697419604776	0	0.9399999999999999	0	43.82653142144267	-10.35020778593932	-10.82645145263383	55.02657345630352	0.9603948829030126	0	0	0	43.82653142144267	-10.35020778593932	-10.82645145263383	55.02657345630352	0.9603948829030126	0	0	0	2.260815438088968	2.230876580460199	12.14908714299528	14.37965473419544	3.02233886036091	0.5293043430077035	10.19674081739292	105.7864886176225	0	0	9.54498676703726	2.289684087462181	-5.049796184671653	11.70090540976171	100.1783903800314	0	0
0.1166666666666667	0.4541476388561559	-0.4933848342915169	38.56251318907105	0	0.9399999999999999	0	43.82857191313116	-10.34868250261643	-10.82371771020833	55.02654145231631	0.9603943243280619	0	0	0	43.82857191313116	-10.34868250261643	-10.82371771020833	55.02654145231631	0.9603943243280619	0	0	0	2.264333556613259	2.223208854380252	12.13468764870052	14.38229709894812	2.993911240047086	0.5663351729376599	10.14430146696112	105.760647505092	0	0	9.523387476713683	2.284834883221398	-5.038034092012137	11.68642174782259	100.182587104331	0	0
0.1333333333333333	0.4470427819272054	-0.5005854832370683	38.55774868657601	0	0.9399999999999999	0	43.83035787529396	-10.34726882593554	-10.82126319910975	55.0265135771581	0.9603938378147716	0	0	0	43.83035787529396	-10.34726882593554	-10.82126319910975	55.0265135771581	0.9603938378147716	0	0	0	2.251416940908223	2.220198842709007	12.12993889636252	14.44533723815669	2.977496729314071	0.586879073940206	10.0978296143883	105.7504867719749	0	0	9.539766935138845	2.297106790449142	-5.081753673895126	11.60840684772613	100.2833490253196	0	0
0.15	0.4420540723931397	-0.5092534808554123	38.54857603336691	0	0.9399999999999999	0	43.83120120810227	-10.34655556086732	-10.82006897861521	55.02650050018462	0.9603936095785282	0	0	0	43.83120120810227	-10.34655556086732	-10.82006897861521	55.02650050018462	0.9603936095785282	0	0	0	2.240977962148524	2.215001219898859	12.12210769989323	14.44564967780093	2.999110680427497	0.6413600682648276	10.03157631336544	105.6637923494458	0	0	9.528587650157398	2.312984396110159	-5.084736197525562	11.60126584971457	100.2982674723675	0	0
0.1666666666666667	0.4388320701425649	-0.5127992604721849	38.53415822438114	0	0.9399999999999999	0	43.83353200734327	-10.34475747707709	-10.81690450991762	55.02646403916763	0.9603929732137331	0	0	0	43.83353200734327	-10.34475747707709	-10.81690450991762	55.02646403916763	0.9603929732137331	0	0	0	2.232747965160829	2.210767667885341	12.10157430140051	14.45651852630327	3.005603584553813	0.6887291585104627	10.02775211215374	105.6354196022533	0	-1.077613842297402e-35	9.499811149264177	2.31037514583213	-5.073769106970834	11.58491080512016	100.3121085513165	0	-1.077613842297402e-35
0.1833333333333333	0.4360458119948241	-0.5138565782574043	38.52404061075166	0	0.9399999999999999	0	43.83511426367546	-10.34357378844766	-10.81478712414521	55.0264392009111	0.9603925397043762	0	0	0	43.83511426367546	-10.34357378844766	-10.81478712414521	55.0264392009111	0.9603925397043762	0	0	0	2.227510832497754	2.209607175520372	12.08957413721398	14.45371973176854	3.015393522624621	0.7063921473386854	9.989944827257835	105.590678419102	0	1.077613842297402e-35	9.467490427687697	2.315264394508294	-5.047577012096242	11.56571488826653	100.3225839313279	0	1.077613842297402e-35
0.2	0.4249461745084477	-0.5396836006733365	38.53032640747639	0	0.9399999999999999	0	43.83611238637839	-10.34273349349349	-10.81337911048773	55.02642370163944	0.960392269191054	0	0	0	43.83611238637839	-10.34273349349349	-10.81337911048773	55.02642370163944	0.960392269191054	0	0	0	2.201380212362132	2.19433494639719	12.07614486959132	14.4828475707788	3.032443845515604	0.7723848041073863	9.962908355854221	105.5907910931412	0	0	9.485203761580445	2.303443882059242	-5.033815718364868	11.58287509484501	100.2935361286734	0	0
0.2166666666666666	0.4194161224912702	-0.5517053156626556	38.53913931537262	0	0.9399999999999999	0	43.83628224028944	-10.34255940674256	-10.81311375887366	55.02642112527524	0.9603922242250161	0	0	0	43.83628224028944	-10.34255940674256	-10.81311375887366	55.02642112527524	0.9603922242250161	0	0	0	2.189133646137969	2.187224080071882	12.04708039917772	14.4853746238352	3.053244229545976	0.8074712435381891	9.94619160200372	105.7571252744947	0	0	9.506723992488901	2.333615292291434	-5.093633576965849	11.53314601759375	100.146926983402	0	0
0.2333333333333333	0.4206002340745701	-0.5475373198768521	38.54556903322939	0	0.9399999999999999	0	43.83645300798056	-10.34238449237599	-10.81284707194035	55.02641853438766	0.9603921790054972	0	0	0	43.83645300798056	-10.34238449237599	-10.81284707194035	55.02641853438766	0.9603921790054972	0	0	0	2.19217798744757	2.188415617482669	12.01243799327067	14.46106476774363	3.101762500427786	0.8508549797765756	9.881024620009788	105.9895712167701	0	0	9.5093936366641	2.369476309435043	-5.149474634738998	11.47418553913874	100.049560720484	0	0
0.25	0.4134565141850864	-0.57636331380603	38.55948814424158	0	0.9399999999999999	0	43.83665035036728	-10.34218293396699	-10.81253944428993	55.02641553327591	0.960392126626216	0	0	0	43.83665035036728	-10.34218293396699	-10.81253944428993	55.02641553327591	0.960392126626216	0	0	0	2.168189109745329	2.169277357070915	11.98738632195114	14.51200512859355	3.127813345988704	0.8974398725170084	9.880966783254939	105.9675989452098	0	0	9.526233138178803	2.382065794731955	-5.154369196319397	11.40541799941184	99.81025217017974	0	0
0.2666666666666667	0.4056733896123721	-0.6105642275710603	38.58169853010487	0	0.9399999999999999	0	43.83694071046189	-10.34188487539022	-10.81208527429	55.02641113994599	0.9603920499481438	0	0	0	43.83694071046189	-10.34188487539022	-10.81208527429	55.02641113994599	0.9603920499481438	0	0	0	2.140253191900202	2.146374227127134	11.96758375884987	14.53318771750634	3.217290027696714	1.080224169902045	9.818015616000814	105.8812231477527	0	0	9.588399499479545	2.345168053428757	-5.130092582579022	11.4137034522167	99.78398971516904	0	0
0.2833333333333333	0.4094908510538587	-0.6100445879826877	38.592891975899	0	0.9399999999999999	0	43.83717899004162	-10.34164479521065	-10.81171710660238	55.02640747268163	0.9603919859423062	0	0	0	43.83717899004162	-10.34164479521065	-10.81171710660238	55.02640747268163	0.9603919859423062	0	0	0	2.143105986596584	2.143448875167944	11.94756248561424	14.48597588633857	3.232189234915314	1.266230164795302	9.864545256508908	105.7156807748002	0	0	9.541229205830735	2.371561271249274	-5.037190316943101	11.34308935788833	99.66092836290233	0	0
0.3	0.4047309020484881	-0.6211317444153466	38.64025525139494	0	0.9399999999999999	0	43.837439822795	-10.34137788915755	-10.81130989359322	55.02640351818378	0.9603919169232983	0	0	0	43.837439822795	-10.34137788915755	-10.81130989359322	55.02640351818378	0.9603919169232983	0	0	0	2.131566278864707	2.135494737254464	11.88030428641403	14.41672170125734	3.323901073391097	1.45236488723311	9.736423195377913	106.2559103687327	0	0	9.554158455256967	2.370466081558363	-5.06299348033818	11.22434438298103	99.70039352437801	0	0
0.3166666666666667	0.3902711897779614	-0.646313175452043	38.68549308327939	0	0.9399999999999999	0	43.83768155480816	-10.34113053108991	-10.81093247437541	55.02639985461998	0.9603918529820478	0	0	0	43.83768155480816	-10.34113053108991	-10.81093247437541	55.02639985461998	0.9603918529820478	0	0	0	2.1039281163672	2.123400012851308	11.84129398140585	14.42903816140629	3.373123113663773	1.583955118430855	9.644930691585408	106.6503611388141	0	0	9.607553058872199	2.37809435532784	-5.075034812922699	11.06816719304127	99.72678772334882	0	0
0.3333333333333333	0.3818948051599428	-0.6707727503744665	38.67979760650858	0	0.9399999999999999	0	43.83794710550009	-10.34086153453867	-10.81052061117614	55.02639579279086	0.9603917820897561	0	0	0	43.83794710550009	-10.34086153453867	-10.81052061117614	55.02639579279086	0.9603917820897561	0	0	0	2.081893900866545	2.109496788518376	11.85233432600153	14.46267286054944	3.398043760727652	1.767175066442973	9.65712223893162	106.4556657771973	0	0	9.520483923139201	2.46034962801234	-4.848685860330677	11.00194964041221	99.50978851885213	0	0
